<?xml version="1.0" encoding="UTF-8" standalone="no"?>
<!-- Generator: Adobe Illustrator 19.1.0, SVG Export Plug-In . SVG Version: 6.00 Build 0)  -->

<svg
   version="1.1"
   id="Calque_1"
   x="0px"
   y="0px"
   viewBox="0 0 92.4 43.1"
   style="enable-background:new 0 0 92.4 43.1;"
   xml:space="preserve"
   sodipodi:docname="logo.svg"
   inkscape:version="1.1.2 (0a00cf5339, 2022-02-04)"
   xmlns:inkscape="http://www.inkscape.org/namespaces/inkscape"
   xmlns:sodipodi="http://sodipodi.sourceforge.net/DTD/sodipodi-0.dtd"
   xmlns="http://www.w3.org/2000/svg"
   xmlns:svg="http://www.w3.org/2000/svg"><defs
   id="defs11" /><sodipodi:namedview
   id="namedview9"
   pagecolor="#ffffff"
   bordercolor="#666666"
   borderopacity="1.0"
   inkscape:pageshadow="2"
   inkscape:pageopacity="0.0"
   inkscape:pagecheckerboard="0"
   showgrid="false"
   inkscape:zoom="7.8872332"
   inkscape:cx="44.18533"
   inkscape:cy="47.164828"
   inkscape:window-width="1920"
   inkscape:window-height="1080"
   inkscape:window-x="0"
   inkscape:window-y="0"
   inkscape:window-maximized="1"
   inkscape:current-layer="Calque_1" />
<g
   id="g6">
	<path
   d="M88.1,19.8c-1.7,0.9-5.5,1.9-6.5,2c-1.1,0.1-1.4-0.4-1.4-0.4s-0.4-0.8,0.2-1.4c0.5-0.6,0.4-1.2,0.4-1.2s-0.2-0.4-1.1-0.5   c-0.9-0.1-2.5,0.5-2.5,0.5s-1.5-1.5-2.1-2.6c-0.6-1.1-0.8-2.3-1-3c-0.2-0.7-0.3-2.4-0.6-3.2s-0.3-1.1-0.3-1.4   c0-0.2,1.2-0.1,1.7-0.2c0.5-0.1,1.6-2.1,2.1-3.4c0.5-1.3,0-1.6,0-1.6c-0.3,0-2.5,1.2-3.8,1.8c-0.8,0.4-1.7,0.9-2.2,1.2   c-0.1-0.8-0.6-2-1.5-2.3c-0.6-0.2-1.7-0.7-2.6-1.1c-0.1-0.2-0.2-0.4-0.4-0.7c-0.4-0.6-1.3-1-1.9-1.2c-0.6-0.2-0.8-0.6-1.2-0.8   c-0.4-0.2-0.9-0.1-1.2-0.1S61.3,0.1,60.9,0c-0.4-0.1-1.1,0.6-2,0.9C58,1.2,56,1.2,55,1.1c-1-0.1-3.3-0.3-4.6-0.2s-2.6,0.7-4.8,1.4   s-5.9,0.4-8.1,0.3c-2.1-0.2-10.1-1.8-11-2c-0.9-0.2-1.6-0.1-3.7,0.4c-2.1,0.5-6.7,1-9.3,1.1C11,2.2,9.7,3,7.5,4.6   c0,0-2.1,2.1-2.4,2.5C4.9,7.6,3.4,8.8,2.5,9.7c-0.8,0.9-1.7,3.8-1.8,4.8c-0.1,1-0.4,6-0.6,7.1c-0.2,1.1-0.2,3.3,0,4.3   c0.2,1,0.9,0.7,0.9-0.1c0-0.7-0.3-1.9-0.3-2.2c0-0.3,0.4-2,0.4-2.3c0-0.4,0.2-1.6,0.4-1.1c0,0,0,0,0,0c0,0.2,0,1.3,0.3,1.9   c0.4,0.8,1.7,3.6,1.6,4.2c-0.1,0.5,0.2,2-0.4,3.1c-0.6,1.1-0.9,2.4-1,2.5c-0.1,0.1-0.5,0.4-0.5,1.3c0,0.8,0.4,1.2,1,2   c0.6,0.8,1.3,1.9,1.4,2.4c0,0.6,0,2.6-0.4,3.2s-0.9,2.1-0.1,2.3h7c1,0,0.3-1.2-0.1-2.1c-0.2-0.3-1.3-0.8-1.5-0.9   c-0.2,0-0.9-4-0.8-4.4c0.1-0.5,0.6-2.2,0.8-2.7c0.1-0.2,0.2-0.9,0.4-1.6c0,0.1,0.1,0.2,0.1,0.3c0.2,0.6,0.2,1.8,0.2,2.8   s0.8,1.6,1.4,1.9c0.7,0.3,2,2.7,2.6,3.6c0.7,0.9-0.1,1.3-0.5,2c-0.4,0.7,0.2,1.1,1.1,1.1c0.9,0,7.3,0,7.3,0c0-0.5-1-2.1-1.2-2.3   c-0.1-0.2-1.1-0.3-1.3-0.5c-0.2-0.2-1.6-3-2-3.8c-0.4-0.8-0.5-1.5-0.5-1.8c-0.1-0.4-0.5-1.8-0.8-2.6c-0.3-0.8-0.5-3-0.5-3.6   c0-0.5,0.5-1.4,1.1-1.8c0.5-0.5,0.7-1.7,0.9-2.6l0.4,0.2c0,0,3.5,3.9,3.7,4.1c0.2,0.2,5.7,2.5,8.1,2.8c2.4,0.2,5.7,0.1,8.8-0.3   c3.1-0.4,6-0.8,6-0.8c0.1,0.2,0.6,1.6,0.4,2.1c-0.2,0.5-0.8,1.7-0.8,2.1c0,0.4-0.3,2.9,0,3.7c0.3,0.8,0.2,1.3-0.1,2   c-0.4,0.7-1,2.5-0.9,2.9l9.6,0.1l4.5,0.1c0-0.8-1.1-2.2-1.9-2.4c-0.5-0.1-0.4-1.9-0.8-2.3c-0.4-0.5-0.4-1.3-0.4-1.8   s0.5-2.3,0.7-3.2c0.1-0.9,0.4-1.1,0.9-1.9c0.5-0.8,1.3-2.7,1.4-3.3c0.1-0.6,0.3-0.8,0.6-0.9c0.3-0.1,1-0.5,1.3-0.5   c0.3,0,1.3,0.1,1.6-0.1c0.3-0.1,0.4-0.8,0.8-1c0.4-0.2,1.1-0.3,1.1-0.3s0.9,0.8,1.2,0.8c0.4,0,0.8-0.3,1-0.6   c0.2-0.3,0.7-1.5,0.7-1.5s0,0,0.3,0.9c0.3,0.9,1.4,2.2,1.8,2.4c0.4,0.2,3.6,2.8,4.3,3.4c0.8,0.6,1.4,1.4,1.8,1.6   c0.4,0.2,0.6,0,0.6,0s1.1,0.8,1.7,0.9c0.7,0.1,1.1-0.1,2.2-0.4c1.1-0.2,1.9-1.1,2.3-1.6c0.4-0.5,1-2.3,1.1-2.8   c0.1-0.5,1.3-0.9,1.6-1.2c0.3-0.2,2-1,2.3-1.4c0.4-0.4,0.5-1.1,0.5-1.1s1.2-0.9,1.9-1.7c0.7-0.7,2.6-3,3.3-3.9   c0.6-0.8,1.5-2.3,1.7-2.6C92,17.3,89.7,19,88.1,19.8z M49.2,35.7c0,0,0.2,2.1,0.5,2.4c0.2,0.4,0.3,0.5,0.3,0.8c0,0.2-0.7,1-1.1,1.6   c-0.1,0-0.2,0-0.3,0c-0.3,0-0.8-1.6-0.8-2.1S49,35.9,49.2,35.7z M54.5,30.1C54.5,30.1,54.5,30.1,54.5,30.1   C54.5,30.1,54.5,30.1,54.5,30.1z"
   id="path2"
   style="fill:#800000" />
	<path
   d="M92.3,16.8C92.4,16.8,92.4,16.8,92.3,16.8C92.4,16.7,92.4,16.8,92.3,16.8z"
   id="path4" />
</g>
<g
   aria-label="rhino"
   id="text38490"
   style="font-style:italic;font-weight:bold;font-size:18.6667px;font-family:'WILD LIFE';-inkscape-font-specification:'WILD LIFE Bold Italic';letter-spacing:0px;word-spacing:0px;fill:#ffffff"><path
     d="m 28.097395,12.120413 -0.765334,1.437336 -0.765335,-0.224001 -0.840002,-0.317334 -1.885336,0.970669 -0.802669,0.392001 -0.168,0.485334 -0.672001,3.658673 -0.709335,0.616001 -1.474669,-0.746668 1.026668,-3.509339 0.560001,-3.22934 1.120003,-1.045335 1.213335,0.821335 -0.224,0.784001 2.930672,-1.586669 z"
     id="path40315" /><path
     d="m 34.910707,15.405752 -0.653334,3.229339 -1.008002,0.821335 -1.120002,-0.317334 0.354667,-1.344002 0.224001,-2.445338 -1.904004,-0.01867 -1.101335,3.378673 -1.530669,0.597335 -0.280001,-0.896002 0.541334,-3.957341 1.026669,-4.274674 0.410667,-0.5040009 1.232003,0.2613338 v 3.3413391 l 2.968005,0.504001 z"
     id="path40317" /><path
     d="m 36.777355,11.448412 0.056,-1.7733369 1.568003,-0.093333 0.784002,0.4479999 -0.149334,1.36267 -1.288002,0.298667 z m 1.176003,4.01334 -0.392001,2.837339 -0.578668,1.549336 -0.429334,-0.149334 -1.064002,-0.690668 0.466668,-3.434673 0.242667,-2.557338 1.418669,-0.578667 1.045335,1.008002 z"
     id="path40319" /><path
     d="m 47.081339,14.584417 -1.176002,3.920007 -0.746668,0.690668 -1.306669,-0.186667 1.288002,-4.200007 -0.485334,-1.512003 -2.706671,1.381336 -0.01867,0.373334 -1.157336,3.770673 -1.306669,0.485335 -0.914668,-0.728002 1.138669,-3.472006 0.522667,-3.658673 0.709335,-1.026669 1.045335,0.746668 v 1.418669 l 4.498675,-1.86667 z"
     id="path40321" /><path
     d="m 50.347999,18.784425 -0.896001,-0.130667 -1.325336,-4.554675 2.296004,-2.650671 3.304006,-1.7733369 0.989335,1.2506689 -0.224,0.709335 0.373334,2.557338 -1.512003,3.826673 z m 1.325336,-6.402678 -1.661336,1.904003 0.690667,2.669338 1.64267,-0.485334 0.261334,-1.92267 z"
     id="path40323" /></g></svg>
